<?xml version="1.0" encoding="utf-8"?>
<!-- Generator: Adobe Illustrator 13.0.0, SVG Export Plug-In . SVG Version: 6.00 Build 14948)  -->
<!DOCTYPE svg PUBLIC "-//W3C//DTD SVG 1.1//EN" "http://www.w3.org/Graphics/SVG/1.1/DTD/svg11.dtd">
<svg version="1.1" id="Layer_1" xmlns="http://www.w3.org/2000/svg" xmlns:xlink="http://www.w3.org/1999/xlink" x="0px" y="0px"
	 width="450px" height="27.395px" viewBox="0 0 450 27.395" enable-background="new 0 0 450 27.395" xml:space="preserve">
<g>
	<g>
		<path fill="#FFFFFF" d="M5.18,1.141c5.589,0,8.516,1.815,8.516,9.921c0,8.401-3.396,10.129-8.604,10.129H0.613
			C0.115,21.19,0,21.072,0,20.574V1.755c0-0.525,0.115-0.614,0.641-0.614H5.18z M5.005,18.029c3.306,0,4.534-1.434,4.534-7.025
			c0-5.238-1.258-6.703-4.534-6.703H3.949v13.729H5.005z"/>
		<path fill="#FFFFFF" d="M27.774,19.638c0.06,0.088,0.089,0.206,0.089,0.319c0,0.764-2.928,1.729-5.24,1.729
			c-3.863,0-6.555-2.194-6.555-7.58c0-4.653,2.487-7.873,6.409-7.873c4.976,0,5.854,4.448,5.854,7.99
			c0,0.556-0.118,0.729-0.675,0.729h-7.871c0,1.643,0.466,3.658,3.217,3.658c2.108,0,3.308-0.964,3.716-0.964
			c0.149,0,0.265,0.117,0.324,0.233L27.774,19.638z M24.381,12.231c0-1.198-0.09-3.276-2.108-3.276c-2.282,0-2.4,2.459-2.486,3.276
			H24.381z"/>
		<path fill="#FFFFFF" d="M36.352,20.574c0,0.527-0.117,0.616-0.613,0.616h-2.49c-0.494,0-0.614-0.089-0.614-0.616V9.453h-2.077
			c-0.498,0-0.613-0.088-0.613-0.613V7.346c0-0.527,0.115-0.613,0.613-0.613h2.077V5.531c0-3.22,1.171-5.531,4.685-5.531
			c1.316,0,3.57,0.467,3.57,1.055c0,0.086-0.029,0.175-0.059,0.263l-0.527,2.048c-0.03,0.117-0.146,0.293-0.264,0.293
			c-0.322,0-0.937-0.496-2.05-0.496c-1.579,0-1.638,0.964-1.638,2.369v1.201h3.336c0.265,0,0.499,0.059,0.499,0.29
			c0,0.118-0.03,0.175-0.061,0.293l-0.409,1.728c-0.088,0.381-0.264,0.41-0.555,0.41h-2.811V20.574z"/>
		<path fill="#FFFFFF" d="M53.239,19.638c0.06,0.088,0.089,0.206,0.089,0.319c0,0.764-2.926,1.729-5.238,1.729
			c-3.862,0-6.558-2.194-6.558-7.58c0-4.653,2.489-7.873,6.411-7.873c4.977,0,5.854,4.448,5.854,7.99
			c0,0.556-0.117,0.729-0.676,0.729H45.25c0,1.643,0.469,3.658,3.221,3.658c2.105,0,3.305-0.964,3.715-0.964
			c0.148,0,0.266,0.117,0.322,0.233L53.239,19.638z M49.846,12.231c0-1.198-0.089-3.276-2.105-3.276
			c-2.284,0-2.402,2.459-2.49,3.276H49.846z"/>
		<path fill="#FFFFFF" d="M68.638,20.778c0,0.323-0.06,0.412-0.411,0.412h-2.898c-0.352,0-0.409-0.089-0.409-0.412v-9.013
			c0-1.113-0.147-2.46-1.641-2.46c-1.228,0-2.192,0.848-2.573,1.2v10.272c0,0.323-0.06,0.412-0.408,0.412h-2.901
			c-0.35,0-0.408-0.089-0.408-0.412v-8.837c0-4.125-0.558-3.894-0.558-4.567c0-0.147,0.117-0.263,0.323-0.322l2.226-0.731
			c0.175-0.059,0.32-0.087,0.439-0.087c0.379,0,0.613,0.644,0.936,2.021c0.848-0.764,2.165-2.021,4.479-2.021
			c1.607,0,3.806,0.731,3.806,4.272V20.778z"/>
		<path fill="#FFFFFF" d="M82.012,21.57c-0.115,0.029-0.262,0.116-0.381,0.116c-0.263,0-0.701-1.024-0.849-1.756
			c-0.466,0.437-1.755,1.756-3.861,1.756c-3.337,0-5.006-2.692-5.006-7.142c0-5.531,1.989-8.312,5.619-8.312
			c1.581,0,2.255,0.558,2.724,0.878V1.113c0-0.441,0.205-0.441,0.555-0.529l2.457-0.496C83.36,0.088,83.621,0,83.68,0
			c0.234,0,0.293,0.117,0.293,0.614v15.981c0,2.838,0.528,3.217,0.528,3.804c0,0.117-0.118,0.204-0.265,0.263L82.012,21.57z
			 M80.258,9.744c-0.266-0.146-0.762-0.584-1.992-0.584c-2.194,0-2.633,1.639-2.633,4.889c0,3.306,0.555,4.711,2.459,4.711
			c1.315,0,1.815-0.646,2.166-1.024V9.744z"/>
		<path fill="#FFFFFF" d="M92.726,20.778c0,0.323-0.058,0.412-0.409,0.412H89.42c-0.351,0-0.41-0.089-0.41-0.412V9.453h-2.253
			c-0.352,0-0.41-0.088-0.41-0.41V7.141c0-0.322,0.059-0.408,0.41-0.408h5.56c0.352,0,0.409,0.086,0.409,0.408V20.778z M90.852,4.83
			c-1.344,0-2.428-1.084-2.428-2.43S89.508,0,90.852,0c1.318,0,2.402,1.055,2.402,2.4S92.17,4.83,90.852,4.83z"/>
		<path fill="#FFFFFF" d="M108.766,20.778c0,0.323-0.059,0.412-0.41,0.412h-2.898c-0.35,0-0.408-0.089-0.408-0.412v-9.013
			c0-1.113-0.146-2.46-1.639-2.46c-1.229,0-2.195,0.848-2.576,1.2v10.272c0,0.323-0.058,0.412-0.409,0.412h-2.899
			c-0.35,0-0.408-0.089-0.408-0.412v-8.837c0-4.125-0.556-3.894-0.556-4.567c0-0.147,0.118-0.263,0.322-0.322l2.224-0.731
			c0.176-0.059,0.322-0.087,0.439-0.087c0.381,0,0.614,0.644,0.936,2.021c0.851-0.764,2.166-2.021,4.479-2.021
			c1.61,0,3.805,0.731,3.805,4.272V20.778z"/>
		<path fill="#FFFFFF" d="M123.752,15.513c0,1.929,0.146,4.944,0.146,6.582c0,3.19-1.581,5.3-5.648,5.3
			c-2.283,0-6.059-0.938-6.059-1.552c0-0.204,0.029-0.321,0.117-0.587l0.557-1.784c0.057-0.204,0.175-0.292,0.321-0.292
			c0.351,0,2.136,1.142,4.741,1.142c2.049,0,2.399-0.85,2.399-2.49c0-1.022-0.089-1.724-0.089-1.931
			c-0.438,0.294-1.55,1.112-3.54,1.112c-3.278,0-5.005-2.751-5.005-7.14c0-4.713,2.048-7.64,5.533-7.64
			c2.077,0,2.927,0.907,3.482,1.376c0.088-0.264,0.613-1.376,1.023-1.376c0.088,0,0.203,0.028,0.294,0.06l2.282,0.848
			c0.117,0.057,0.263,0.148,0.263,0.264c0,0.38-0.819,1.436-0.819,3.744V15.513z M120.238,10.183
			c-0.378-0.291-0.992-0.877-2.311-0.877c-1.756,0-2.518,1.639-2.518,4.45c0,2.662,0.587,4.33,2.342,4.33
			c1.494,0,2.195-0.731,2.486-0.995V10.183z"/>
		<path fill="#FFFFFF" d="M141.783,1.141c5.59,0,8.516,1.815,8.516,9.921c0,8.401-3.395,10.129-8.604,10.129h-4.477
			c-0.5,0-0.615-0.118-0.615-0.616V1.755c0-0.525,0.115-0.614,0.645-0.614H141.783z M141.605,18.029
			c3.311,0,4.539-1.434,4.539-7.025c0-5.238-1.258-6.703-4.539-6.703h-1.051v13.729H141.605z"/>
		<path fill="#FFFFFF" d="M158.32,20.778c0,0.323-0.059,0.412-0.41,0.412h-2.896c-0.352,0-0.41-0.089-0.41-0.412V9.453h-2.256
			c-0.35,0-0.408-0.088-0.408-0.41V7.141c0-0.322,0.059-0.408,0.408-0.408h5.563c0.352,0,0.41,0.086,0.41,0.408V20.778z
			 M156.447,4.83c-1.346,0-2.43-1.084-2.43-2.43s1.084-2.4,2.43-2.4c1.316,0,2.4,1.055,2.4,2.4S157.764,4.83,156.447,4.83z"/>
		<path fill="#FFFFFF" d="M173.629,15.513c0,1.929,0.148,4.944,0.148,6.582c0,3.19-1.584,5.3-5.652,5.3
			c-2.281,0-6.059-0.938-6.059-1.552c0-0.204,0.031-0.321,0.119-0.587l0.557-1.784c0.057-0.204,0.174-0.292,0.32-0.292
			c0.352,0,2.137,1.142,4.744,1.142c2.047,0,2.398-0.85,2.398-2.49c0-1.022-0.088-1.724-0.088-1.931
			c-0.439,0.294-1.551,1.112-3.541,1.112c-3.279,0-5.006-2.751-5.006-7.14c0-4.713,2.049-7.64,5.533-7.64
			c2.078,0,2.926,0.907,3.482,1.376c0.086-0.264,0.615-1.376,1.023-1.376c0.088,0,0.205,0.028,0.295,0.06l2.281,0.848
			c0.117,0.057,0.264,0.148,0.264,0.264c0,0.38-0.82,1.436-0.82,3.744V15.513z M170.117,10.183
			c-0.379-0.291-0.996-0.877-2.311-0.877c-1.758,0-2.52,1.639-2.52,4.45c0,2.662,0.588,4.33,2.34,4.33
			c1.494,0,2.197-0.731,2.49-0.995V10.183z"/>
		<path fill="#FFFFFF" d="M188.996,20.778c0,0.323-0.059,0.412-0.41,0.412h-2.898c-0.348,0-0.41-0.089-0.41-0.412v-9.013
			c0-1.113-0.145-2.46-1.637-2.46c-1.232,0-2.197,0.848-2.576,1.2v10.272c0,0.323-0.057,0.412-0.41,0.412h-2.898
			c-0.35,0-0.41-0.089-0.41-0.412v-8.837c0-4.125-0.555-3.894-0.555-4.567c0-0.147,0.119-0.263,0.326-0.322l2.221-0.731
			c0.176-0.059,0.324-0.087,0.439-0.087c0.381,0,0.613,0.644,0.936,2.021c0.848-0.764,2.166-2.021,4.479-2.021
			c1.609,0,3.805,0.731,3.805,4.272V20.778z"/>
		<path fill="#FFFFFF" d="M197.895,20.778c0,0.323-0.061,0.412-0.408,0.412h-2.898c-0.35,0-0.412-0.089-0.412-0.412V9.453h-2.25
			c-0.354,0-0.412-0.088-0.412-0.41V7.141c0-0.322,0.059-0.408,0.412-0.408h5.561c0.348,0,0.408,0.086,0.408,0.408V20.778z
			 M196.021,4.83c-1.35,0-2.43-1.084-2.43-2.43s1.08-2.4,2.43-2.4c1.316,0,2.398,1.055,2.398,2.4S197.338,4.83,196.021,4.83z"/>
		<path fill="#FFFFFF" d="M210.979,20.34c0.029,0.146,0.057,0.146,0.057,0.234c0,0.558-2.135,1.112-4.125,1.112
			c-3.777,0-3.777-2.958-3.777-5.648V9.453h-2.074c-0.354,0-0.412-0.088-0.412-0.41V7.141c0-0.322,0.059-0.408,0.412-0.408h2.074
			V3.043c0-0.382,0.061-0.468,0.473-0.527l2.572-0.35c0.09,0,0.203-0.029,0.379-0.029c0.264,0,0.295,0.146,0.295,0.495v4.101h3.336
			c0.266,0,0.498,0,0.498,0.319c0,0.06,0,0.118-0.029,0.237l-0.381,1.725c-0.088,0.41-0.176,0.439-0.525,0.439h-2.898v7.084
			c0,0.934,0,1.783,0.992,1.783c1.174,0,1.906-0.556,2.314-0.556c0.117,0,0.207,0.06,0.236,0.175L210.979,20.34z"/>
		<path fill="#FFFFFF" d="M220.932,7.083c0.086-0.321,0.23-0.616,0.496-0.616c0.117,0,0.438,0.03,0.525,0.03l2.049,0.265
			c0.439,0.057,0.643,0.086,0.643,0.29c0,0.118-0.086,0.294-0.145,0.528l-2.869,10.566c-0.525,1.9-1.314,4.887-1.959,6.495
			c-0.85,2.139-2.664,2.753-4.303,2.753c-1.609,0-3.98-0.79-3.98-1.348c0-0.115,0.059-0.234,0.117-0.352l0.879-1.902
			c0.057-0.145,0.174-0.205,0.262-0.205c0.295,0,1.201,0.733,2.488,0.733c1.521,0,1.963-0.907,2.34-2.167l0.293-0.964h-1.229
			c-0.381,0-0.438-0.118-0.527-0.382L211.535,7.58c-0.029-0.061-0.117-0.291-0.146-0.497c0-0.235,0.203-0.265,0.645-0.321
			l2.428-0.265c0.09,0,0.41-0.03,0.469-0.03c0.234,0,0.324,0.295,0.408,0.585l1.902,7.083c0.354,1.316,0.939,4.07,1.113,5.064h0.061
			c0.145-1.143,0.85-4.537,0.965-5.064L220.932,7.083z"/>
		<path fill="#FFFFFF" d="M227.371,21.687c-1.496,0-2.781-1.229-2.781-2.781c0-1.551,1.285-2.78,2.781-2.78
			c1.52,0,2.779,1.229,2.779,2.78C230.15,20.457,228.891,21.687,227.371,21.687z"/>
		<path fill="#FFFFFF" d="M247.584,20.574c0,0.529-0.088,0.613-0.588,0.613h-2.75c-0.498,0-0.613-0.084-0.613-0.613V1.755
			c0-0.525,0.115-0.613,0.613-0.613h9.6c0.586,0,0.732,0.058,0.732,0.323c0,0.145-0.031,0.205-0.092,0.408l-0.553,1.962
			c-0.117,0.437-0.439,0.467-0.674,0.467h-5.676V9.13h4.975c0.525,0,0.615,0.089,0.615,0.615v1.932c0,0.526-0.119,0.615-0.615,0.615
			h-4.975V20.574z"/>
		<path fill="#FFFFFF" d="M261.545,20.777c0,0.326-0.059,0.41-0.41,0.41h-2.898c-0.35,0-0.408-0.084-0.408-0.41V9.454h-2.256
			c-0.35,0-0.408-0.089-0.408-0.411v-1.9c0-0.323,0.059-0.41,0.408-0.41h5.563c0.352,0,0.41,0.087,0.41,0.41V20.777z M259.672,4.83
			c-1.346,0-2.432-1.086-2.432-2.432c0-1.344,1.086-2.398,2.432-2.398c1.316,0,2.398,1.055,2.398,2.398
			C262.07,3.744,260.988,4.83,259.672,4.83z"/>
		<path fill="#FFFFFF" d="M276.85,15.512c0,1.93,0.15,4.945,0.15,6.584c0,3.19-1.582,5.299-5.65,5.299
			c-2.283,0-6.057-0.938-6.057-1.552c0-0.204,0.029-0.322,0.115-0.586l0.555-1.785c0.061-0.206,0.178-0.292,0.322-0.292
			c0.352,0,2.139,1.141,4.742,1.141c2.049,0,2.4-0.849,2.4-2.488c0-1.023-0.088-1.727-0.088-1.93
			c-0.439,0.292-1.551,1.111-3.541,1.111c-3.277,0-5.006-2.752-5.006-7.141c0-4.713,2.049-7.64,5.533-7.64
			c2.076,0,2.928,0.909,3.482,1.377c0.086-0.263,0.613-1.377,1.023-1.377c0.088,0,0.205,0.03,0.295,0.058l2.281,0.852
			c0.117,0.056,0.262,0.145,0.262,0.262c0,0.382-0.82,1.436-0.82,3.746V15.512z M273.34,10.184
			c-0.381-0.292-0.996-0.877-2.313-0.877c-1.756,0-2.518,1.639-2.518,4.449c0,2.662,0.584,4.33,2.342,4.33
			c1.492,0,2.197-0.73,2.488-0.994V10.184z"/>
		<path fill="#FFFFFF" d="M292.219,20.777c0,0.326-0.059,0.41-0.41,0.41h-2.896c-0.352,0-0.41-0.084-0.41-0.41v-9.013
			c0-1.11-0.146-2.458-1.639-2.458c-1.229,0-2.109,0.877-2.488,1.227v10.244c0,0.326-0.057,0.41-0.41,0.41h-2.896
			c-0.352,0-0.41-0.084-0.41-0.41V1.111c0-0.438,0.205-0.438,0.555-0.527l2.461-0.496c0.086,0,0.35-0.088,0.41-0.088
			c0.234,0,0.291,0.114,0.291,0.614v7.288c0.789-0.645,1.961-1.669,4.039-1.669c3.102,0,3.805,2.077,3.805,4.624V20.777z"/>
		<path fill="#FFFFFF" d="M304.979,20.34c0.031,0.146,0.061,0.146,0.061,0.234c0,0.557-2.139,1.112-4.125,1.112
			c-3.777,0-3.777-2.956-3.777-5.647V9.454h-2.078c-0.35,0-0.408-0.089-0.408-0.411v-1.9c0-0.323,0.059-0.41,0.408-0.41h2.078v-3.69
			c0-0.379,0.061-0.466,0.469-0.524l2.574-0.352c0.09,0,0.207-0.029,0.383-0.029c0.262,0,0.291,0.146,0.291,0.496v4.1h3.336
			c0.266,0,0.498,0,0.498,0.319c0,0.061,0,0.118-0.029,0.235l-0.379,1.726c-0.09,0.409-0.176,0.441-0.527,0.441h-2.898v7.083
			c0,0.934,0,1.785,0.994,1.785c1.174,0,1.904-0.558,2.313-0.558c0.119,0,0.205,0.059,0.234,0.175L304.979,20.34z"/>
		<path fill="#FFFFFF" d="M311.949,20.777c0,0.326-0.061,0.41-0.41,0.41h-2.898c-0.35,0-0.41-0.084-0.41-0.41V9.454h-2.252
			c-0.352,0-0.41-0.089-0.41-0.411v-1.9c0-0.323,0.059-0.41,0.41-0.41h5.561c0.35,0,0.41,0.087,0.41,0.41V20.777z M310.074,4.83
			c-1.348,0-2.428-1.086-2.428-2.432c0-1.344,1.08-2.398,2.428-2.398c1.316,0,2.402,1.055,2.402,2.398
			C312.477,3.744,311.391,4.83,310.074,4.83z"/>
		<path fill="#FFFFFF" d="M327.986,20.777c0,0.326-0.061,0.41-0.41,0.41h-2.896c-0.35,0-0.408-0.084-0.408-0.41v-9.013
			c0-1.11-0.146-2.458-1.641-2.458c-1.227,0-2.195,0.848-2.574,1.2v10.271c0,0.326-0.061,0.41-0.412,0.41h-2.896
			c-0.35,0-0.41-0.084-0.41-0.41v-8.835c0-4.127-0.557-3.896-0.557-4.567c0-0.146,0.117-0.263,0.324-0.323l2.223-0.729
			c0.176-0.059,0.324-0.089,0.439-0.089c0.383,0,0.615,0.644,0.938,2.019c0.85-0.76,2.166-2.019,4.477-2.019
			c1.609,0,3.805,0.731,3.805,4.273V20.777z"/>
		<path fill="#FFFFFF" d="M342.973,15.512c0,1.93,0.148,4.945,0.148,6.584c0,3.19-1.582,5.299-5.648,5.299
			c-2.283,0-6.059-0.938-6.059-1.552c0-0.204,0.027-0.322,0.117-0.586l0.557-1.785c0.057-0.206,0.176-0.292,0.32-0.292
			c0.35,0,2.137,1.141,4.74,1.141c2.051,0,2.4-0.849,2.4-2.488c0-1.023-0.088-1.727-0.088-1.93
			c-0.438,0.292-1.551,1.111-3.543,1.111c-3.275,0-5.002-2.752-5.002-7.141c0-4.713,2.047-7.64,5.533-7.64
			c2.076,0,2.926,0.909,3.482,1.377c0.088-0.263,0.611-1.377,1.023-1.377c0.086,0,0.203,0.03,0.293,0.058l2.283,0.852
			c0.115,0.056,0.262,0.145,0.262,0.262c0,0.382-0.82,1.436-0.82,3.746V15.512z M339.461,10.184
			c-0.379-0.292-0.992-0.877-2.313-0.877c-1.754,0-2.518,1.639-2.518,4.449c0,2.662,0.588,4.33,2.344,4.33
			c1.494,0,2.195-0.73,2.486-0.994V10.184z"/>
		<path fill="#FFFFFF" d="M359.512,20.574c0,0.529-0.115,0.613-0.613,0.613h-2.723c-0.498,0-0.615-0.084-0.615-0.613V1.755
			c0-0.525,0.117-0.613,0.615-0.613h4.74c2.373,0,6.822,0,6.822,5.501c0,4.828-3.6,6.527-6.674,6.527h-1.553V20.574z
			 M360.418,10.096c1.727,0,3.369-0.291,3.369-3.247c0-2.547-1.553-2.632-3.076-2.632h-1.199v5.879H360.418z"/>
		<path fill="#FFFFFF" d="M375.059,21.687c-3.953,0-6.352-3.015-6.352-7.728c0-4.711,2.398-7.726,6.352-7.726
			c3.922,0,6.35,3.015,6.35,7.726C381.408,18.672,379.01,21.687,375.059,21.687z M377.457,13.959c0-2.721-0.381-4.799-2.398-4.799
			c-2.021,0-2.4,2.078-2.4,4.799s0.352,4.802,2.4,4.802S377.457,16.713,377.457,13.959z"/>
		<path fill="#FFFFFF" d="M390.605,21.071c-0.117,0.321-0.146,0.38-0.555,0.38h-2.402c-0.408,0-0.439-0.059-0.555-0.38l-4.654-13.49
			c-0.029-0.06-0.117-0.294-0.148-0.498c0-0.234,0.209-0.264,0.645-0.323l2.43-0.261c0.09,0,0.41-0.03,0.469-0.03
			c0.236,0,0.322,0.291,0.41,0.583l1.783,6.587c0.324,1.17,0.764,3.157,0.939,4.242h0.061c0.174-1.053,0.643-3.102,0.994-4.242
			l1.988-6.587c0.086-0.319,0.176-0.583,0.41-0.583c0.059,0,0.381,0.03,0.471,0.03l1.988,0.261c0.439,0.06,0.641,0.089,0.641,0.323
			c-0.025,0.204-0.117,0.438-0.146,0.498L390.605,21.071z"/>
		<path fill="#FFFFFF" d="M408.086,19.639c0.059,0.086,0.086,0.205,0.086,0.32c0,0.762-2.928,1.728-5.238,1.728
			c-3.863,0-6.555-2.194-6.555-7.58c0-4.652,2.484-7.873,6.41-7.873c4.975,0,5.852,4.45,5.852,7.991c0,0.555-0.119,0.73-0.672,0.73
			h-7.875c0,1.638,0.467,3.658,3.221,3.658c2.107,0,3.305-0.967,3.717-0.967c0.146,0,0.262,0.118,0.32,0.234L408.086,19.639z
			 M404.689,12.232c0-1.197-0.086-3.275-2.107-3.275c-2.283,0-2.4,2.457-2.488,3.275H404.689z"/>
		<path fill="#FFFFFF" d="M415.576,20.777c0,0.326-0.055,0.41-0.406,0.41h-2.898c-0.35,0-0.408-0.084-0.408-0.41v-8.835
			c0-3.222-0.762-3.747-0.762-4.421c0-0.117,0.115-0.207,0.264-0.264l2.223-0.908c0.117-0.027,0.266-0.116,0.381-0.116
			c0.352,0,0.938,1.317,1.082,2.313c0.559-0.674,1.639-2.313,3.631-2.313c0.846,0,1.697,0.292,1.697,0.675
			c0,0.115-0.029,0.234-0.057,0.29l-0.91,2.461c-0.029,0.086-0.115,0.262-0.234,0.262c-0.174,0-0.705-0.321-1.373-0.321
			c-0.91,0-1.844,0.995-2.229,1.402V20.777z"/>
		<path fill="#FFFFFF" d="M430.826,20.34c0.031,0.146,0.061,0.146,0.061,0.234c0,0.557-2.135,1.112-4.127,1.112
			c-3.775,0-3.775-2.956-3.775-5.647V9.454h-2.074c-0.357,0-0.412-0.089-0.412-0.411v-1.9c0-0.323,0.055-0.41,0.412-0.41h2.074
			v-3.69c0-0.379,0.057-0.466,0.469-0.524l2.574-0.352c0.088,0,0.203-0.029,0.379-0.029c0.264,0,0.297,0.146,0.297,0.496v4.1h3.332
			c0.268,0,0.5,0,0.5,0.319c0,0.061,0,0.118-0.029,0.235l-0.379,1.726c-0.092,0.409-0.178,0.441-0.527,0.441h-2.896v7.083
			c0,0.934,0,1.785,0.992,1.785c1.172,0,1.904-0.558,2.311-0.558c0.121,0,0.207,0.059,0.236,0.175L430.826,20.34z"/>
		<path fill="#FFFFFF" d="M440.781,7.083c0.086-0.323,0.232-0.614,0.496-0.614c0.119,0,0.441,0.03,0.527,0.03l2.051,0.261
			c0.438,0.06,0.645,0.089,0.645,0.292c0,0.118-0.092,0.296-0.148,0.529l-2.869,10.565c-0.525,1.9-1.316,4.887-1.961,6.495
			c-0.844,2.139-2.662,2.753-4.301,2.753c-1.611,0-3.982-0.793-3.982-1.349c0-0.116,0.059-0.231,0.119-0.351l0.877-1.9
			c0.061-0.145,0.178-0.206,0.266-0.206c0.291,0,1.199,0.731,2.486,0.731c1.52,0,1.959-0.908,2.342-2.165l0.293-0.968h-1.23
			c-0.381,0-0.439-0.116-0.527-0.379l-4.477-13.228c-0.029-0.06-0.117-0.294-0.148-0.498c0-0.234,0.205-0.264,0.645-0.323
			l2.43-0.261c0.088,0,0.408-0.03,0.467-0.03c0.236,0,0.322,0.291,0.412,0.583l1.902,7.083c0.354,1.317,0.938,4.07,1.111,5.065
			h0.061c0.145-1.144,0.848-4.536,0.963-5.065L440.781,7.083z"/>
		<path fill="#FFFFFF" d="M447.219,21.687c-1.492,0-2.777-1.229-2.777-2.78s1.285-2.781,2.777-2.781c1.521,0,2.781,1.23,2.781,2.781
			S448.74,21.687,447.219,21.687z"/>
	</g>
</g>
</svg>
