<?xml version="1.0" encoding="utf-8"?>
<!-- Generator: Adobe Illustrator 13.0.0, SVG Export Plug-In . SVG Version: 6.00 Build 14948)  -->
<!DOCTYPE svg PUBLIC "-//W3C//DTD SVG 1.1//EN" "http://www.w3.org/Graphics/SVG/1.1/DTD/svg11.dtd">
<svg version="1.1" id="Layer_1" xmlns="http://www.w3.org/2000/svg" xmlns:xlink="http://www.w3.org/1999/xlink" x="0px" y="0px"
	 width="64px" height="50px" viewBox="0 0 64 50" enable-background="new 0 0 64 50" xml:space="preserve">
<rect fill="#F9781C" width="64" height="50"/>
<path fill-rule="evenodd" clip-rule="evenodd" fill="#FFFFFF" d="M39.66,11.658c0.042,0.493-0.245,0.652-0.414,0.925
	c0.552-0.173,1.521-0.544,2.082-0.137c0.296,1.149-1.775,1.439-2.595,1.666c4.387,0.61,6.629,3.367,7.639,7.358
	c1.274,0.443,3.313,0.423,4.442-0.138c-0.364,1.592-1.948,1.969-3.614,2.267c0.942,0.43,2.485,0.412,3.8,0.325
	c-0.186,0.469-0.697,0.872-1.205,1.159c-0.818,0.459-2.018,0.744-3.286,0.647c-2.311,7.638-8.596,12.099-18.096,12.588
	c-4.249,0.217-7.683-1.091-10.369-2.729c-1.519-0.931-2.836-2.126-4.026-3.428c-0.388-0.426-0.875-0.858-1.019-1.434
	c1.914,1.414,4.471,2.975,7.914,2.5c2.434-0.338,4.378-1.604,5.833-2.871c-1.253,0-2.506-0.466-2.548-1.62
	c-0.023-0.724,0.512-1.256,1.111-1.571c-1.263-0.089-2.265-0.361-3.147-1.067c-0.469-0.374-1.1-1.1-1.064-1.48
	c0.023-0.228,0.404-0.533,0.603-0.647c0.421-0.241,0.927-0.325,1.388-0.417c-1.84-0.677-3.426-1.605-3.654-3.887
	c0.561-0.167,1.175-0.275,1.897-0.279c-1.333-1.029-2.912-2.209-2.82-4.813c2.689,0.945,5.355,2.127,7.866,3.331
	c1.861,0.897,3.504,1.837,4.813,3.285c1.467-3.601,2.868-7.278,6.016-9.208c0.038,0.344-0.108,0.506-0.187,0.741
	C37.751,12.218,38.559,11.793,39.66,11.658z"/>
</svg>
