<?xml version="1.0" encoding="utf-8"?>
<!-- Generator: Adobe Illustrator 13.0.0, SVG Export Plug-In . SVG Version: 6.00 Build 14948)  -->
<!DOCTYPE svg PUBLIC "-//W3C//DTD SVG 1.1//EN" "http://www.w3.org/Graphics/SVG/1.1/DTD/svg11.dtd">
<svg version="1.1" id="Layer_1" xmlns="http://www.w3.org/2000/svg" xmlns:xlink="http://www.w3.org/1999/xlink" x="0px" y="0px"
	 width="64px" height="50px" viewBox="0 0 64 50" enable-background="new 0 0 64 50" xml:space="preserve">
<rect fill="#F9781C" width="64" height="50"/>
<path fill="#FFFFFF" d="M48.955,38.213l-9.65-9.645c1.389-2.088,2.205-4.595,2.205-7.29c0-7.312-5.922-13.233-13.236-13.233
	c-7.309,0-13.229,5.922-13.229,13.233c0,7.307,5.92,13.231,13.229,13.231c2.697,0,5.201-0.811,7.289-2.199l9.65,9.645L48.955,38.213
	z M19.01,21.279c0-5.116,4.153-9.267,9.264-9.267c5.115,0,9.268,4.15,9.268,9.267c0,5.114-4.152,9.26-9.268,9.26
	C23.163,30.539,19.01,26.393,19.01,21.279z"/>
</svg>
